# Tiled2Unity generated file. Do not modify by hand.
# Wavefront file for 'Mapa1update_mesh_0004.obj'

# Vertices (Count = 200)
v -1312 -1056 0
v -1344 -1056 0
v -1344 -1024 0
v -1312 -1024 0
v -1248 -1088 0
v -1280 -1088 0
v -1280 -1056 0
v -1248 -1056 0
v -1248 -1120 0
v -1280 -1120 0
v -1280 -1088 0
v -1248 -1088 0
v -2112 -1152 0
v -2144 -1152 0
v -2144 -1120 0
v -2112 -1120 0
v -2080 -1152 0
v -2112 -1152 0
v -2112 -1120 0
v -2080 -1120 0
v -2048 -1152 0
v -2080 -1152 0
v -2080 -1120 0
v -2048 -1120 0
v -2112 -1184 0
v -2144 -1184 0
v -2144 -1152 0
v -2112 -1152 0
v -2080 -1184 0
v -2112 -1184 0
v -2112 -1152 0
v -2080 -1152 0
v -2048 -1184 0
v -2080 -1184 0
v -2080 -1152 0
v -2048 -1152 0
v -1952 -1184 0
v -1984 -1184 0
v -1984 -1152 0
v -1952 -1152 0
v -1920 -1184 0
v -1952 -1184 0
v -1952 -1152 0
v -1920 -1152 0
v -1888 -1184 0
v -1920 -1184 0
v -1920 -1152 0
v -1888 -1152 0
v -2112 -1216 0
v -2144 -1216 0
v -2144 -1184 0
v -2112 -1184 0
v -2080 -1216 0
v -2112 -1216 0
v -2112 -1184 0
v -2080 -1184 0
v -2048 -1216 0
v -2080 -1216 0
v -2080 -1184 0
v -2048 -1184 0
v -1952 -1216 0
v -1984 -1216 0
v -1984 -1184 0
v -1952 -1184 0
v -1920 -1216 0
v -1952 -1216 0
v -1952 -1184 0
v -1920 -1184 0
v -1888 -1216 0
v -1920 -1216 0
v -1920 -1184 0
v -1888 -1184 0
v -2080 -1248 0
v -2112 -1248 0
v -2112 -1216 0
v -2080 -1216 0
v -2048 -1248 0
v -2080 -1248 0
v -2080 -1216 0
v -2048 -1216 0
v -2016 -1248 0
v -2048 -1248 0
v -2048 -1216 0
v -2016 -1216 0
v -1952 -1248 0
v -1984 -1248 0
v -1984 -1216 0
v -1952 -1216 0
v -1920 -1248 0
v -1952 -1248 0
v -1952 -1216 0
v -1920 -1216 0
v -1888 -1248 0
v -1920 -1248 0
v -1920 -1216 0
v -1888 -1216 0
v -2080 -1280 0
v -2112 -1280 0
v -2112 -1248 0
v -2080 -1248 0
v -2048 -1280 0
v -2080 -1280 0
v -2080 -1248 0
v -2048 -1248 0
v -2016 -1280 0
v -2048 -1280 0
v -2048 -1248 0
v -2016 -1248 0
v -1952 -1280 0
v -1984 -1280 0
v -1984 -1248 0
v -1952 -1248 0
v -1920 -1280 0
v -1952 -1280 0
v -1952 -1248 0
v -1920 -1248 0
v -1888 -1280 0
v -1920 -1280 0
v -1920 -1248 0
v -1888 -1248 0
v -2080 -1312 0
v -2112 -1312 0
v -2112 -1280 0
v -2080 -1280 0
v -2048 -1312 0
v -2080 -1312 0
v -2080 -1280 0
v -2048 -1280 0
v -2016 -1312 0
v -2048 -1312 0
v -2048 -1280 0
v -2016 -1280 0
v -1952 -1312 0
v -1984 -1312 0
v -1984 -1280 0
v -1952 -1280 0
v -1920 -1312 0
v -1952 -1312 0
v -1952 -1280 0
v -1920 -1280 0
v -1888 -1312 0
v -1920 -1312 0
v -1920 -1280 0
v -1888 -1280 0
v -2080 -1344 0
v -2112 -1344 0
v -2112 -1312 0
v -2080 -1312 0
v -2048 -1344 0
v -2080 -1344 0
v -2080 -1312 0
v -2048 -1312 0
v -2016 -1344 0
v -2048 -1344 0
v -2048 -1312 0
v -2016 -1312 0
v -1952 -1344 0
v -1984 -1344 0
v -1984 -1312 0
v -1952 -1312 0
v -1920 -1344 0
v -1952 -1344 0
v -1952 -1312 0
v -1920 -1312 0
v -1888 -1344 0
v -1920 -1344 0
v -1920 -1312 0
v -1888 -1312 0
v -2080 -1376 0
v -2112 -1376 0
v -2112 -1344 0
v -2080 -1344 0
v -2048 -1376 0
v -2080 -1376 0
v -2080 -1344 0
v -2048 -1344 0
v -2016 -1376 0
v -2048 -1376 0
v -2048 -1344 0
v -2016 -1344 0
v -1664 -1376 0
v -1696 -1376 0
v -1696 -1344 0
v -1664 -1344 0
v -1632 -1376 0
v -1664 -1376 0
v -1664 -1344 0
v -1632 -1344 0
v -2080 -1408 0
v -2112 -1408 0
v -2112 -1376 0
v -2080 -1376 0
v -2048 -1408 0
v -2080 -1408 0
v -2080 -1376 0
v -2048 -1376 0
v -2016 -1408 0
v -2048 -1408 0
v -2048 -1376 0
v -2016 -1376 0

# Texture cooridinates (Count = 40)
vt 0.91 0.9473684
vt 0.9633333 0.9473684
vt 0.9633333 1
vt 0.91 1
vt 0.91 0.8832237
vt 0.9633333 0.8832237
vt 0.9633333 0.9358553
vt 0.91 0.9358553
vt 0.845 0.8832237
vt 0.8983333 0.8832237
vt 0.8983333 0.9358553
vt 0.845 0.9358553
vt 0.78 0.8832237
vt 0.8333333 0.8832237
vt 0.8333333 0.9358553
vt 0.78 0.9358553
vt 0.91 0.8190789
vt 0.9633333 0.8190789
vt 0.9633333 0.8717105
vt 0.91 0.8717105
vt 0.845 0.8190789
vt 0.8983333 0.8190789
vt 0.8983333 0.8717105
vt 0.845 0.8717105
vt 0.78 0.8190789
vt 0.8333333 0.8190789
vt 0.8333333 0.8717105
vt 0.78 0.8717105
vt 0.91 0.7549342
vt 0.9633333 0.7549342
vt 0.9633333 0.8075658
vt 0.91 0.8075658
vt 0.845 0.7549342
vt 0.8983333 0.7549342
vt 0.8983333 0.8075658
vt 0.845 0.8075658
vt 0.78 0.7549342
vt 0.8333333 0.7549342
vt 0.8333333 0.8075658
vt 0.78 0.8075658

# Normal
vn 0 0 -1

# Mesh description
g Mapa1update_mesh_0004

# Faces
f 1/1/1 2/2/1 3/3/1 4/4/1
f 5/1/1 6/2/1 7/3/1 8/4/1
f 9/1/1 10/2/1 11/3/1 12/4/1
f 13/5/1 14/6/1 15/7/1 16/8/1
f 17/9/1 18/10/1 19/11/1 20/12/1
f 21/13/1 22/14/1 23/15/1 24/16/1
f 25/17/1 26/18/1 27/19/1 28/20/1
f 29/21/1 30/22/1 31/23/1 32/24/1
f 33/25/1 34/26/1 35/27/1 36/28/1
f 37/5/1 38/6/1 39/7/1 40/8/1
f 41/9/1 42/10/1 43/11/1 44/12/1
f 45/13/1 46/14/1 47/15/1 48/16/1
f 49/29/1 50/30/1 51/31/1 52/32/1
f 53/33/1 54/34/1 55/35/1 56/36/1
f 57/37/1 58/38/1 59/39/1 60/40/1
f 61/17/1 62/18/1 63/19/1 64/20/1
f 65/21/1 66/22/1 67/23/1 68/24/1
f 69/25/1 70/26/1 71/27/1 72/28/1
f 73/5/1 74/6/1 75/7/1 76/8/1
f 77/9/1 78/10/1 79/11/1 80/12/1
f 81/13/1 82/14/1 83/15/1 84/16/1
f 85/29/1 86/30/1 87/31/1 88/32/1
f 89/33/1 90/34/1 91/35/1 92/36/1
f 93/37/1 94/38/1 95/39/1 96/40/1
f 97/17/1 98/18/1 99/19/1 100/20/1
f 101/21/1 102/22/1 103/23/1 104/24/1
f 105/25/1 106/26/1 107/27/1 108/28/1
f 109/5/1 110/6/1 111/7/1 112/8/1
f 113/9/1 114/10/1 115/11/1 116/12/1
f 117/13/1 118/14/1 119/15/1 120/16/1
f 121/29/1 122/30/1 123/31/1 124/32/1
f 125/33/1 126/34/1 127/35/1 128/36/1
f 129/37/1 130/38/1 131/39/1 132/40/1
f 133/17/1 134/18/1 135/19/1 136/20/1
f 137/21/1 138/22/1 139/23/1 140/24/1
f 141/25/1 142/26/1 143/27/1 144/28/1
f 145/5/1 146/6/1 147/7/1 148/8/1
f 149/9/1 150/10/1 151/11/1 152/12/1
f 153/13/1 154/14/1 155/15/1 156/16/1
f 157/29/1 158/30/1 159/31/1 160/32/1
f 161/33/1 162/34/1 163/35/1 164/36/1
f 165/37/1 166/38/1 167/39/1 168/40/1
f 169/17/1 170/18/1 171/19/1 172/20/1
f 173/21/1 174/22/1 175/23/1 176/24/1
f 177/25/1 178/26/1 179/27/1 180/28/1
f 181/1/1 182/2/1 183/3/1 184/4/1
f 185/1/1 186/2/1 187/3/1 188/4/1
f 189/29/1 190/30/1 191/31/1 192/32/1
f 193/33/1 194/34/1 195/35/1 196/36/1
f 197/37/1 198/38/1 199/39/1 200/40/1

