# Tiled2Unity generated file. Do not modify by hand.
# Wavefront file for 'Mapa1_mesh_0007.obj'

# Vertices (Count = 156)
v -1600 -1088 0
v -1632 -1088 0
v -1632 -1056 0
v -1600 -1056 0
v -1568 -1088 0
v -1600 -1088 0
v -1600 -1056 0
v -1568 -1056 0
v -1536 -1088 0
v -1568 -1088 0
v -1568 -1056 0
v -1536 -1056 0
v -1504 -1088 0
v -1536 -1088 0
v -1536 -1056 0
v -1504 -1056 0
v -1600 -1120 0
v -1632 -1120 0
v -1632 -1088 0
v -1600 -1088 0
v -1568 -1120 0
v -1600 -1120 0
v -1600 -1088 0
v -1568 -1088 0
v -1536 -1120 0
v -1568 -1120 0
v -1568 -1088 0
v -1536 -1088 0
v -1504 -1120 0
v -1536 -1120 0
v -1536 -1088 0
v -1504 -1088 0
v -1440 -1280 0
v -1472 -1280 0
v -1472 -1248 0
v -1440 -1248 0
v -1408 -1280 0
v -1440 -1280 0
v -1440 -1248 0
v -1408 -1248 0
v -1472 -1312 0
v -1504 -1312 0
v -1504 -1280 0
v -1472 -1280 0
v -1440 -1312 0
v -1472 -1312 0
v -1472 -1280 0
v -1440 -1280 0
v -1408 -1312 0
v -1440 -1312 0
v -1440 -1280 0
v -1408 -1280 0
v -1536 -1344 0
v -1568 -1344 0
v -1568 -1312 0
v -1536 -1312 0
v -1504 -1344 0
v -1536 -1344 0
v -1536 -1312 0
v -1504 -1312 0
v -1472 -1344 0
v -1504 -1344 0
v -1504 -1312 0
v -1472 -1312 0
v -1440 -1344 0
v -1472 -1344 0
v -1472 -1312 0
v -1440 -1312 0
v -1408 -1344 0
v -1440 -1344 0
v -1440 -1312 0
v -1408 -1312 0
v -1568 -1376 0
v -1600 -1376 0
v -1600 -1344 0
v -1568 -1344 0
v -1536 -1376 0
v -1568 -1376 0
v -1568 -1344 0
v -1536 -1344 0
v -1440 -1376 0
v -1472 -1376 0
v -1472 -1344 0
v -1440 -1344 0
v -1568 -1408 0
v -1600 -1408 0
v -1600 -1376 0
v -1568 -1376 0
v -1536 -1408 0
v -1568 -1408 0
v -1568 -1376 0
v -1536 -1376 0
v -1600 -1440 0
v -1632 -1440 0
v -1632 -1408 0
v -1600 -1408 0
v -1568 -1440 0
v -1600 -1440 0
v -1600 -1408 0
v -1568 -1408 0
v -1536 -1440 0
v -1568 -1440 0
v -1568 -1408 0
v -1536 -1408 0
v -1664 -1472 0
v -1696 -1472 0
v -1696 -1440 0
v -1664 -1440 0
v -1632 -1472 0
v -1664 -1472 0
v -1664 -1440 0
v -1632 -1440 0
v -1600 -1472 0
v -1632 -1472 0
v -1632 -1440 0
v -1600 -1440 0
v -1568 -1472 0
v -1600 -1472 0
v -1600 -1440 0
v -1568 -1440 0
v -1536 -1472 0
v -1568 -1472 0
v -1568 -1440 0
v -1536 -1440 0
v -1696 -1504 0
v -1728 -1504 0
v -1728 -1472 0
v -1696 -1472 0
v -1664 -1504 0
v -1696 -1504 0
v -1696 -1472 0
v -1664 -1472 0
v -1632 -1504 0
v -1664 -1504 0
v -1664 -1472 0
v -1632 -1472 0
v -1600 -1504 0
v -1632 -1504 0
v -1632 -1472 0
v -1600 -1472 0
v -1568 -1504 0
v -1600 -1504 0
v -1600 -1472 0
v -1568 -1472 0
v -1696 -1536 0
v -1728 -1536 0
v -1728 -1504 0
v -1696 -1504 0
v -1664 -1536 0
v -1696 -1536 0
v -1696 -1504 0
v -1664 -1504 0
v -1632 -1536 0
v -1664 -1536 0
v -1664 -1504 0
v -1632 -1504 0

# Texture cooridinates (Count = 16)
vt 0.07932692 0.875
vt 0.15625 0.875
vt 0.15625 1
vt 0.07932692 1
vt 0 0.875
vt 0.07692308 0.875
vt 0.07692308 1
vt 0 1
vt 0.07932692 0.7460938
vt 0.15625 0.7460938
vt 0.15625 0.8710938
vt 0.07932692 0.8710938
vt 0 0.7460938
vt 0.07692308 0.7460938
vt 0.07692308 0.8710938
vt 0 0.8710938

# Normal
vn 0 0 -1

# Mesh description
g Mapa1_mesh_0007

# Faces
f 1/1/1 2/2/1 3/3/1 4/4/1
f 5/5/1 6/6/1 7/7/1 8/8/1
f 9/5/1 10/6/1 11/7/1 12/8/1
f 13/5/1 14/6/1 15/7/1 16/8/1
f 17/9/1 18/10/1 19/11/1 20/12/1
f 21/13/1 22/14/1 23/15/1 24/16/1
f 25/13/1 26/14/1 27/15/1 28/16/1
f 29/13/1 30/14/1 31/15/1 32/16/1
f 33/1/1 34/2/1 35/3/1 36/4/1
f 37/5/1 38/6/1 39/7/1 40/8/1
f 41/1/1 42/2/1 43/3/1 44/4/1
f 45/9/1 46/10/1 47/11/1 48/12/1
f 49/13/1 50/14/1 51/15/1 52/16/1
f 53/1/1 54/2/1 55/3/1 56/4/1
f 57/1/1 58/2/1 59/3/1 60/4/1
f 61/9/1 62/10/1 63/11/1 64/12/1
f 65/9/1 66/10/1 67/11/1 68/12/1
f 69/13/1 70/14/1 71/15/1 72/16/1
f 73/1/1 74/2/1 75/3/1 76/4/1
f 77/9/1 78/10/1 79/11/1 80/12/1
f 81/13/1 82/14/1 83/15/1 84/16/1
f 85/9/1 86/10/1 87/11/1 88/12/1
f 89/9/1 90/10/1 91/11/1 92/12/1
f 93/1/1 94/2/1 95/3/1 96/4/1
f 97/9/1 98/10/1 99/11/1 100/12/1
f 101/13/1 102/14/1 103/15/1 104/16/1
f 105/1/1 106/2/1 107/3/1 108/4/1
f 109/1/1 110/2/1 111/3/1 112/4/1
f 113/9/1 114/10/1 115/11/1 116/12/1
f 117/9/1 118/10/1 119/11/1 120/12/1
f 121/13/1 122/14/1 123/15/1 124/16/1
f 125/1/1 126/2/1 127/3/1 128/4/1
f 129/9/1 130/10/1 131/11/1 132/12/1
f 133/9/1 134/10/1 135/11/1 136/12/1
f 137/9/1 138/10/1 139/11/1 140/12/1
f 141/13/1 142/14/1 143/15/1 144/16/1
f 145/9/1 146/10/1 147/11/1 148/12/1
f 149/9/1 150/10/1 151/11/1 152/12/1
f 153/13/1 154/14/1 155/15/1 156/16/1

