# Tiled2Unity generated file. Do not modify by hand.
# Wavefront file for 'Mapa1_mesh_0003.obj'

# Vertices (Count = 160)
v -1440 -992 0
v -1472 -992 0
v -1472 -960 0
v -1440 -960 0
v -1408 -992 0
v -1440 -992 0
v -1440 -960 0
v -1408 -960 0
v -1440 -1024 0
v -1472 -1024 0
v -1472 -992 0
v -1440 -992 0
v -1408 -1024 0
v -1440 -1024 0
v -1440 -992 0
v -1408 -992 0
v -1440 -1056 0
v -1472 -1056 0
v -1472 -1024 0
v -1440 -1024 0
v -1408 -1056 0
v -1440 -1056 0
v -1440 -1024 0
v -1408 -1024 0
v -1376 -1088 0
v -1408 -1088 0
v -1408 -1056 0
v -1376 -1056 0
v -1344 -1088 0
v -1376 -1088 0
v -1376 -1056 0
v -1344 -1056 0
v -1376 -1120 0
v -1408 -1120 0
v -1408 -1088 0
v -1376 -1088 0
v -1344 -1120 0
v -1376 -1120 0
v -1376 -1088 0
v -1344 -1088 0
v -1376 -1152 0
v -1408 -1152 0
v -1408 -1120 0
v -1376 -1120 0
v -1344 -1152 0
v -1376 -1152 0
v -1376 -1120 0
v -1344 -1120 0
v -1408 -1184 0
v -1440 -1184 0
v -1440 -1152 0
v -1408 -1152 0
v -1376 -1184 0
v -1408 -1184 0
v -1408 -1152 0
v -1376 -1152 0
v -1248 -1184 0
v -1280 -1184 0
v -1280 -1152 0
v -1248 -1152 0
v -1216 -1184 0
v -1248 -1184 0
v -1248 -1152 0
v -1216 -1152 0
v -1408 -1216 0
v -1440 -1216 0
v -1440 -1184 0
v -1408 -1184 0
v -1376 -1216 0
v -1408 -1216 0
v -1408 -1184 0
v -1376 -1184 0
v -1248 -1216 0
v -1280 -1216 0
v -1280 -1184 0
v -1248 -1184 0
v -1216 -1216 0
v -1248 -1216 0
v -1248 -1184 0
v -1216 -1184 0
v -1536 -1248 0
v -1568 -1248 0
v -1568 -1216 0
v -1536 -1216 0
v -1504 -1248 0
v -1536 -1248 0
v -1536 -1216 0
v -1504 -1216 0
v -1408 -1248 0
v -1440 -1248 0
v -1440 -1216 0
v -1408 -1216 0
v -1376 -1248 0
v -1408 -1248 0
v -1408 -1216 0
v -1376 -1216 0
v -1536 -1280 0
v -1568 -1280 0
v -1568 -1248 0
v -1536 -1248 0
v -1504 -1280 0
v -1536 -1280 0
v -1536 -1248 0
v -1504 -1248 0
v -1344 -1280 0
v -1376 -1280 0
v -1376 -1248 0
v -1344 -1248 0
v -1312 -1280 0
v -1344 -1280 0
v -1344 -1248 0
v -1312 -1248 0
v -1536 -1312 0
v -1568 -1312 0
v -1568 -1280 0
v -1536 -1280 0
v -1504 -1312 0
v -1536 -1312 0
v -1536 -1280 0
v -1504 -1280 0
v -1344 -1312 0
v -1376 -1312 0
v -1376 -1280 0
v -1344 -1280 0
v -1312 -1312 0
v -1344 -1312 0
v -1344 -1280 0
v -1312 -1280 0
v -1344 -1344 0
v -1376 -1344 0
v -1376 -1312 0
v -1344 -1312 0
v -1312 -1344 0
v -1344 -1344 0
v -1344 -1312 0
v -1312 -1312 0
v -1536 -1440 0
v -1568 -1440 0
v -1568 -1408 0
v -1536 -1408 0
v -1504 -1440 0
v -1536 -1440 0
v -1536 -1408 0
v -1504 -1408 0
v -1536 -1472 0
v -1568 -1472 0
v -1568 -1440 0
v -1536 -1440 0
v -1504 -1472 0
v -1536 -1472 0
v -1536 -1440 0
v -1504 -1440 0
v -1536 -1504 0
v -1568 -1504 0
v -1568 -1472 0
v -1536 -1472 0
v -1504 -1504 0
v -1536 -1504 0
v -1536 -1472 0
v -1504 -1472 0

# Texture cooridinates (Count = 64)
vt 0.24375 0.8730159
vt 0.29375 0.8730159
vt 0.29375 1
vt 0.24375 1
vt 0.1828125 0.8730159
vt 0.2328125 0.8730159
vt 0.2328125 1
vt 0.1828125 1
vt 0.24375 0.718254
vt 0.29375 0.718254
vt 0.29375 0.8452381
vt 0.24375 0.8452381
vt 0.1828125 0.718254
vt 0.2328125 0.718254
vt 0.2328125 0.8452381
vt 0.1828125 0.8452381
vt 0.24375 0.5634921
vt 0.29375 0.5634921
vt 0.29375 0.6904762
vt 0.24375 0.6904762
vt 0.1828125 0.5634921
vt 0.2328125 0.5634921
vt 0.2328125 0.6904762
vt 0.1828125 0.6904762
vt 0.365625 0.718254
vt 0.415625 0.718254
vt 0.415625 0.8452381
vt 0.365625 0.8452381
vt 0.3046875 0.718254
vt 0.3546875 0.718254
vt 0.3546875 0.8452381
vt 0.3046875 0.8452381
vt 0.365625 0.5634921
vt 0.415625 0.5634921
vt 0.415625 0.6904762
vt 0.365625 0.6904762
vt 0.3046875 0.5634921
vt 0.3546875 0.5634921
vt 0.3546875 0.6904762
vt 0.3046875 0.6904762
vt 0.365625 0.4087301
vt 0.415625 0.4087301
vt 0.415625 0.5357143
vt 0.365625 0.5357143
vt 0.3046875 0.4087301
vt 0.3546875 0.4087301
vt 0.3546875 0.5357143
vt 0.3046875 0.5357143
vt 0.365625 0.2539682
vt 0.415625 0.2539682
vt 0.415625 0.3809524
vt 0.365625 0.3809524
vt 0.3046875 0.2539682
vt 0.3546875 0.2539682
vt 0.3546875 0.3809524
vt 0.3046875 0.3809524
vt 0.365625 0.09920633
vt 0.415625 0.09920633
vt 0.415625 0.2261904
vt 0.365625 0.2261904
vt 0.3046875 0.09920633
vt 0.3546875 0.09920633
vt 0.3546875 0.2261904
vt 0.3046875 0.2261904

# Normal
vn 0 0 -1

# Mesh description
g Mapa1_mesh_0003

# Faces
f 1/1/1 2/2/1 3/3/1 4/4/1
f 5/5/1 6/6/1 7/7/1 8/8/1
f 9/9/1 10/10/1 11/11/1 12/12/1
f 13/13/1 14/14/1 15/15/1 16/16/1
f 17/17/1 18/18/1 19/19/1 20/20/1
f 21/21/1 22/22/1 23/23/1 24/24/1
f 25/1/1 26/2/1 27/3/1 28/4/1
f 29/5/1 30/6/1 31/7/1 32/8/1
f 33/9/1 34/10/1 35/11/1 36/12/1
f 37/13/1 38/14/1 39/15/1 40/16/1
f 41/17/1 42/18/1 43/19/1 44/20/1
f 45/21/1 46/22/1 47/23/1 48/24/1
f 49/1/1 50/2/1 51/3/1 52/4/1
f 53/5/1 54/6/1 55/7/1 56/8/1
f 57/25/1 58/26/1 59/27/1 60/28/1
f 61/29/1 62/30/1 63/31/1 64/32/1
f 65/9/1 66/10/1 67/11/1 68/12/1
f 69/13/1 70/14/1 71/15/1 72/16/1
f 73/33/1 74/34/1 75/35/1 76/36/1
f 77/37/1 78/38/1 79/39/1 80/40/1
f 81/1/1 82/2/1 83/3/1 84/4/1
f 85/5/1 86/6/1 87/7/1 88/8/1
f 89/17/1 90/18/1 91/19/1 92/20/1
f 93/21/1 94/22/1 95/23/1 96/24/1
f 97/9/1 98/10/1 99/11/1 100/12/1
f 101/13/1 102/14/1 103/15/1 104/16/1
f 105/1/1 106/2/1 107/3/1 108/4/1
f 109/5/1 110/6/1 111/7/1 112/8/1
f 113/17/1 114/18/1 115/19/1 116/20/1
f 117/21/1 118/22/1 119/23/1 120/24/1
f 121/9/1 122/10/1 123/11/1 124/12/1
f 125/13/1 126/14/1 127/15/1 128/16/1
f 129/17/1 130/18/1 131/19/1 132/20/1
f 133/21/1 134/22/1 135/23/1 136/24/1
f 137/41/1 138/42/1 139/43/1 140/44/1
f 141/45/1 142/46/1 143/47/1 144/48/1
f 145/49/1 146/50/1 147/51/1 148/52/1
f 149/53/1 150/54/1 151/55/1 152/56/1
f 153/57/1 154/58/1 155/59/1 156/60/1
f 157/61/1 158/62/1 159/63/1 160/64/1

